<?xml version="1.0" standalone="no"?>
<!DOCTYPE svg PUBLIC "-//W3C//DTD SVG 20010904//EN"
 "http://www.w3.org/TR/2001/REC-SVG-20010904/DTD/svg10.dtd">
<svg version="1.0" xmlns="http://www.w3.org/2000/svg"
 width="264.000000pt" height="88.000000pt" viewBox="0 0 264.000000 88.000000"
 preserveAspectRatio="xMidYMid meet">
<metadata>
Created by potrace 1.13, written by Peter Selinger 2001-2015
</metadata>
<g transform="translate(0.000000,88.000000) scale(0.100000,-0.100000)"
fill="#000000" stroke="none">
<path d="M0 440 l0 -440 1320 0 1320 0 0 440 0 440 -1320 0 -1320 0 0 -440z
m2004 270 c3 0 2 7 -1 17 -4 11 -3 14 6 9 7 -5 10 -14 7 -22 -3 -9 4 -19 19
-26 14 -6 25 -15 25 -19 0 -4 3 -16 6 -26 4 -13 3 -15 -4 -4 -8 11 -18 8 -56
-14 -25 -15 -49 -31 -52 -36 -14 -23 -21 -3 -23 61 -3 86 2 94 39 75 16 -8 31
-15 34 -15z m-1824 10 c0 -5 -7 -10 -15 -10 -8 0 -15 -7 -15 -15 0 -8 -4 -15
-10 -15 -5 0 -10 11 -10 25 0 20 5 25 25 25 14 0 25 -4 25 -10z m130 -15 c0
-14 -4 -25 -10 -25 -5 0 -10 7 -10 15 0 8 -7 15 -15 15 -8 0 -15 5 -15 10 0 6
11 10 25 10 20 0 25 -5 25 -25z m310 0 c0 -20 -5 -25 -25 -25 -14 0 -25 5 -25
10 0 6 7 10 15 10 8 0 15 7 15 15 0 8 5 15 10 15 6 0 10 -11 10 -25z m100 10
c0 -8 7 -15 15 -15 8 0 15 -4 15 -10 0 -5 -11 -10 -25 -10 -20 0 -25 5 -25 25
0 14 5 25 10 25 6 0 10 -7 10 -15z m414 -4 c11 -13 17 -32 15 -54 -2 -19 2
-41 9 -49 15 -19 3 -31 -16 -16 -8 7 -30 11 -49 9 -44 -3 -73 21 -73 62 0 17
7 39 17 49 21 24 75 23 97 -1z m440 0 c11 -13 17 -32 15 -54 -2 -19 2 -41 9
-49 15 -19 3 -31 -16 -16 -8 7 -30 11 -49 9 -44 -3 -73 21 -73 62 0 17 7 39
17 49 21 24 75 23 97 -1z m844 -48 c-4 -81 -28 -85 -28 -4 0 48 3 61 15 61 13
0 15 -11 13 -57z m42 -4 c0 -44 -3 -60 -12 -57 -13 5 -23 80 -14 104 13 34 26
10 26 -47z m-2310 -34 c0 -8 7 -15 15 -15 8 0 15 -4 15 -10 0 -5 -11 -10 -25
-10 -20 0 -25 5 -25 25 0 14 5 25 10 25 6 0 10 -7 10 -15z m160 -10 c0 -20 -5
-25 -25 -25 -14 0 -25 5 -25 10 0 6 7 10 15 10 8 0 15 7 15 15 0 8 5 15 10 15
6 0 10 -11 10 -25z m310 0 c0 -14 -4 -25 -10 -25 -5 0 -10 7 -10 15 0 8 -7 15
-15 15 -8 0 -15 5 -15 10 0 6 11 10 25 10 20 0 25 -5 25 -25z m130 15 c0 -5
-7 -10 -15 -10 -8 0 -15 -7 -15 -15 0 -8 -4 -15 -10 -15 -5 0 -10 11 -10 25 0
20 5 25 25 25 14 0 25 -4 25 -10z m1277 -26 c-3 -3 -12 -4 -19 -1 -8 3 -5 6 6
6 11 1 17 -2 13 -5z m-881 -343 c-31 -32 -59 -32 -30 0 17 18 16 19 -34 19
-29 0 -52 5 -52 10 0 6 23 10 52 10 49 0 50 1 35 18 -29 32 -4 34 27 3 l30
-31 -28 -29z m378 58 c-17 -18 -16 -19 34 -19 29 0 52 -4 52 -10 0 -5 -23 -10
-52 -10 -50 0 -51 -1 -34 -19 29 -32 1 -32 -29 -1 l-29 30 29 30 c30 31 58 31
29 -1z m-1276 -56 c37 35 50 22 15 -15 l-27 -28 27 -28 c35 -37 22 -50 -15
-15 l-28 27 -28 -27 c-37 -35 -50 -22 -15 15 l27 28 -27 28 c-35 37 -22 50 15
15 l28 -27 28 27z m465 -66 c-23 -23 -29 -25 -31 -12 -4 20 -47 13 -74 -12
-23 -20 -23 -9 -1 28 9 15 29 33 45 40 15 6 28 18 28 27 0 11 8 8 30 -13 l30
-29 -27 -29z"/>
<path d="M1056 694 c-9 -8 -16 -22 -16 -29 0 -7 7 -21 16 -29 8 -9 22 -16 29
-16 7 0 21 7 29 16 9 8 16 22 16 29 0 7 -7 21 -16 29 -8 9 -22 16 -29 16 -7 0
-21 -7 -29 -16z m40 -40 c-7 -7 -14 -8 -22 0 -7 7 -8 14 0 22 7 7 14 8 22 0 7
-7 8 -14 0 -22z"/>
<path d="M1496 694 c-9 -8 -16 -22 -16 -29 0 -18 27 -45 45 -45 18 0 45 27 45
45 0 18 -27 45 -45 45 -7 0 -21 -7 -29 -16z m47 -31 c-7 -2 -21 -2 -30 0 -10
3 -4 5 12 5 17 0 24 -2 18 -5z"/>
</g>
</svg>
