<?xml version="1.0" encoding="UTF-8"?>
<svg version="1.1" viewBox="0 0 264 88" xmlns="http://www.w3.org/2000/svg" xmlns:cc="http://creativecommons.org/ns#" xmlns:dc="http://purl.org/dc/elements/1.1/" xmlns:rdf="http://www.w3.org/1999/02/22-rdf-syntax-ns#">
<metadata>
<rdf:RDF>
<cc:Work rdf:about="">
<dc:format>image/svg+xml</dc:format>
<dc:type rdf:resource="http://purl.org/dc/dcmitype/StillImage"/>
<dc:title>default-skin 2</dc:title>
</cc:Work>
</rdf:RDF>
</metadata>
<title>default-skin 2</title>
<path d="m67.002 59.5v3.768c-6.307 0.84-9.184 5.75-10.002 9.732 2.22-2.83 5.564-5.098 10.002-5.098v3.598l5.998-5.915-5.998-6.085z" fill="#fff" fill-rule="evenodd"/>
<g fill="#fff" fill-rule="evenodd">
<path d="m13 29v-5h2v3h3v2h-5zm0-14h5v2h-3v3h-2v-5zm18 0v5h-2v-3h-3v-2h5zm0 14h-5v-2h3v-3h2v5z"/>
</g>
<g fill="#fff" fill-rule="evenodd">
<path d="m62 24v5h-2v-3h-3v-2h5zm0-4h-5v-2h3v-3h2v5zm8 0v-5h2v3h3v2h-5zm0 4h5v2h-3v3h-2v-5z"/>
</g>
<path d="m20.586 66-5.656-5.656 1.414-1.414 5.656 5.656 5.656-5.656 1.414 1.414-5.656 5.656 5.656 5.656-1.414 1.414-5.656-5.656-5.656 5.656-1.414-1.414 5.656-5.656z" fill="#fff" fill-rule="evenodd"/>
<path d="m111.78 65.03-1.785-1.53l3-3.5h-10v-2h10l-3-3.5 1.785-1.468 5.215 5.968-5.215 6.03z" fill="#fff" fill-rule="evenodd"/>
<path d="m152.22 65.03 1.785-1.53-3-3.5h10v-2h-10l3-3.5-1.785-1.468-5.215 5.968 5.215 6.03z" fill="#fff" fill-rule="evenodd"/>
<g fill="none" fill-rule="evenodd">
<path d="m160.96 28.543-3.25-3.25-1.413 1.414 3.25 3.25z" fill="#fff"/>
<path d="m152.5 27c3.038 0 5.5-2.462 5.5-5.5s-2.462-5.5-5.5-5.5-5.5 2.462-5.5 5.5 2.462 5.5 5.5 5.5z" stroke="#fff" stroke-width="1.5"/>
<path d="m150 21h5v1h-5z" fill="#fff"/>
</g>
<g fill="none" fill-rule="evenodd">
<path d="m116.96 28.543-1.414 1.414-3.25-3.25 1.414-1.414 3.25 3.25z" fill="#fff"/>
<path d="m108.5 27c3.038 0 5.5-2.462 5.5-5.5s-2.462-5.5-5.5-5.5-5.5 2.462-5.5 5.5 2.462 5.5 5.5 5.5z" stroke="#fff" stroke-width="1.5"/>
<path d="m106 21h5v1h-5z" fill="#fff"/>
<path d="m109.04 19.008-0.085 5-1-0.017 0.085-5z" fill="#fff"/>
</g>
<rect x="190" y="27" width="16" height="2" fill="#fff"/>
<path d="m198 26-6-6h4v-5h4v5h4z" fill="#fff" fill-rule="evenodd"/>
</svg>
